<svg id="Layer_1" enable-background="new 0 0 128 128" height="512" viewBox="0 0 128 128" width="512" xmlns="http://www.w3.org/2000/svg"><path d="m116.787 20.418h-101.574c-2.206 0-4 1.794-4 4v67.007c0 2.206 1.794 4 4 4h39.702v7.773h-20.532c-4.071 0-7.383 3.312-7.383 7.383 0 .552.447 1 1 1h76c.553 0 1-.448 1-1 0-4.071-3.312-7.383-7.383-7.383h-20.532v-7.773h39.702c2.206 0 4-1.794 4-4v-67.007c0-2.205-1.794-4-4-4z" fill="#e6e7e8"/><path d="m112.787 17.418h-101.574c-1.657 0-3 1.343-3 3v67.007c0 1.657 1.343 3 3 3h101.574c1.657 0 3-1.343 3-3v-67.007c0-1.656-1.343-3-3-3z" fill="#0089ef"/><path d="m11.213 87.425v-67.006c0-1.657 1.343-3 3-3h-3c-1.657 0-3 1.343-3 3v67.007c0 1.657 1.343 3 3 3h3c-1.657-.001-3-1.344-3-3.001z" fill="#fff"/><path d="m107.149 24.082h-90.298c-1.105 0-2 .895-2 2v52.68c0 1.105.895 2 2 2h90.298c1.105 0 2-.895 2-2v-52.68c0-1.105-.895-2-2-2z" fill="#d4fbff"/><path d="m51.915 90.425h20.17v9.773h-20.17z" fill="#0089ef"/><path d="m93.617 100.198h-63.234c-3.525 0-6.383 2.858-6.383 6.383h76c0-3.525-2.858-6.383-6.383-6.383z" fill="#0089ef"/><path d="m31.334 91.425h4.833c.553 0 1-.448 1-1s-.447-1-1-1h-4.833c-.553 0-1 .448-1 1s.447 1 1 1z" fill="#3a2c60"/><path d="m112.787 16.418h-101.574c-2.206 0-4 1.794-4 4v67.007c0 2.206 1.794 4 4 4h14.877c.553 0 1-.448 1-1s-.447-1-1-1h-14.877c-1.103 0-2-.897-2-2v-67.007c0-1.103.897-2 2-2h101.574c1.103 0 2 .897 2 2v67.007c0 1.103-.897 2-2 2h-71.62c-.553 0-1 .448-1 1s.447 1 1 1h9.748v7.773h-20.532c-4.071 0-7.383 3.312-7.383 7.383 0 .552.447 1 1 1h76c.553 0 1-.448 1-1 0-4.071-3.312-7.383-7.383-7.383h-20.532v-7.773h39.702c2.206 0 4-1.794 4-4v-67.007c0-2.205-1.794-4-4-4zm-13.88 89.164h-73.814c.471-2.492 2.664-4.383 5.29-4.383h63.234c2.626-.001 4.819 1.89 5.29 4.383zm-27.822-6.384h-18.17v-7.773h18.17z" fill="#3a2c60"/><circle cx="62" cy="85.624" fill="#fa759e" r="2.5"/><g fill="#fff"><path d="m44.707 24.082-17.617 56.68h23.518l17.617-56.68z"/><path d="m72.672 24.082-17.617 56.68h8.123l17.617-56.68z"/><path d="m85.963 24.082-17.617 56.68h17.535l17.617-56.68z"/></g></svg>