<svg id="Layer_1" height="512" viewBox="0 0 512 512" width="512" xmlns="http://www.w3.org/2000/svg" xmlns:xlink="http://www.w3.org/1999/xlink" data-name="Layer 1"><linearGradient id="linear-gradient" gradientUnits="userSpaceOnUse" x1="256" x2="256" y1="496" y2="61.765"><stop offset=".322" stop-color="#a163f5"/><stop offset=".466" stop-color="#b074ee"/><stop offset=".752" stop-color="#d8a1dd"/><stop offset=".898" stop-color="#efbad3"/></linearGradient><linearGradient id="linear-gradient-2" x1="179.56" x2="179.56" xlink:href="#linear-gradient" y1="496" y2="61.765"/><linearGradient id="linear-gradient-3" x1="218.64" x2="218.64" xlink:href="#linear-gradient" y1="496" y2="61.765"/><path d="m373.83 263.613v-136.153a117.83 117.83 0 0 0 -235.66 0v136.153a31.778 31.778 0 0 0 -26.26 31.247v21.02a6 6 0 0 0 6 6h111.92v22.434l-22.428 20.6a6 6 0 0 0 -1.942 4.419v32.667h-12.29a6 6 0 0 0 -6 6v49a6 6 0 0 0 6 6h12.29v33.36a6 6 0 0 0 12 0v-33.36h11.69a6 6 0 0 0 6-6v-49a6 6 0 0 0 -6-6h-11.69v-30.034l22.428-20.6a6 6 0 0 0 1.942-4.42v-25.066h28.34v25.07a6 6 0 0 0 1.942 4.42l22.428 20.6v30.03h-11.69a6 6 0 0 0 -6 6v49a6 6 0 0 0 6 6h11.69v33.36a6 6 0 0 0 12 0v-33.36h12.29a6 6 0 0 0 6-6v-49a6 6 0 0 0 -6-6h-12.29v-32.67a6 6 0 0 0 -1.942-4.419l-22.428-20.6v-22.431h111.92a6 6 0 0 0 6-6v-21.02a31.778 31.778 0 0 0 -26.26-31.247zm-150.68 150.387v37h-23.98v-37zm89.68 0v37h-23.98v-37zm75.26-104.12h-264.18v-15.02a19.757 19.757 0 0 1 19.74-19.73h171.35a6 6 0 0 0 0-12h-32.83v-38.16h16.6a6 6 0 0 0 6-6v-41.13a6 6 0 0 0 -6-6h-55.77a6 6 0 0 0 0 12h49.77v29.13h-73.54v-29.13h4.64a6 6 0 0 0 0-12h-10.64a6 6 0 0 0 -6 6v41.13a6 6 0 0 0 6 6h16.6v38.16h-79.66v-135.67a105.83 105.83 0 0 1 211.66 0v135.67h-23.5a6 6 0 1 0 0 12h30.02a19.757 19.757 0 0 1 19.74 19.73zm-146.26-46.75v-38.16h28.34v38.16z" fill="url(#linear-gradient)"/><path d="m193.167 49.943a99.507 99.507 0 0 0 -37 77.517v37.54a6 6 0 0 0 12 0v-37.54a87.558 87.558 0 0 1 32.563-68.2 6 6 0 1 0 -7.566-9.314z" fill="url(#linear-gradient-2)"/><path d="m225.006 32.567a99.233 99.233 0 0 0 -17.522 7.675 6 6 0 1 0 5.852 10.476 87.2 87.2 0 0 1 15.4-6.745 6 6 0 0 0 -3.729-11.406z" fill="url(#linear-gradient-3)"/></svg>