<!DOCTYPE svg PUBLIC "-//W3C//DTD SVG 20010904//EN" "http://www.w3.org/TR/2001/REC-SVG-20010904/DTD/svg10.dtd">
<svg version="1.0" xmlns="http://www.w3.org/2000/svg" width="512px" height="512px" viewBox="0 0 5120 5120" preserveAspectRatio="xMidYMid meet">
<g id="layer101" fill="#1a1a1a" stroke="none">
 <path d="M2437 4789 c-405 -44 -737 -336 -849 -747 -28 -102 -30 -343 -5 -444 26 -106 72 -216 129 -308 62 -101 193 -236 291 -299 l67 -43 0 -1082 c0 -600 4 -1105 9 -1136 40 -239 235 -404 474 -402 222 2 415 163 457 381 6 34 10 445 10 1145 l0 1092 67 44 c197 129 351 345 414 580 33 123 33 357 0 480 -48 182 -146 346 -285 477 -206 196 -494 293 -779 262z m348 -243 c249 -85 435 -280 507 -533 18 -62 22 -103 22 -203 0 -149 -15 -215 -81 -348 -73 -149 -224 -294 -375 -360 l-48 -21 0 -1154 c0 -1293 4 -1221 -71 -1302 -23 -24 -60 -53 -83 -65 -48 -23 -136 -27 -198 -8 -53 16 -121 78 -150 136 l-23 47 -3 1175 -4 1175 -88 43 c-107 51 -221 153 -290 259 -195 298 -163 688 77 943 83 88 175 154 273 195 105 44 171 55 320 52 116 -3 146 -7 215 -31z"/>
 <path d="M2453 4430 c-75 -14 -176 -54 -238 -96 -115 -76 -215 -217 -250 -354 -24 -90 -16 -260 15 -349 64 -182 238 -341 419 -383 l51 -11 2 -1120 3 -1119 33 -29 c42 -38 82 -38 124 0 l33 29 3 1215 2 1215 30 7 c44 10 141 76 183 126 21 24 48 66 62 95 27 57 49 175 39 207 -6 19 -3 18 27 -7 26 -23 39 -27 67 -22 42 6 61 22 78 62 11 27 11 41 -2 90 -50 193 -207 359 -396 419 -88 28 -208 38 -285 25z"/>
 <path d="M3208 1871 c-27 -24 -33 -36 -33 -71 0 -35 6 -47 33 -71 32 -29 33 -29 158 -29 l126 0 34 34 c48 48 44 105 -10 148 -17 15 -43 18 -148 18 -127 0 -128 0 -160 -29z"/>
 <path d="M3208 1501 c-27 -24 -33 -36 -33 -71 0 -35 6 -47 33 -71 32 -29 34 -29 152 -29 131 0 164 9 186 51 23 45 17 78 -20 115 l-34 34 -126 0 c-125 0 -126 0 -158 -29z"/>
 <path d="M3233 1150 c-13 -5 -32 -24 -43 -42 -26 -41 -20 -82 17 -120 27 -28 28 -28 156 -28 70 0 137 5 148 10 24 13 49 61 49 96 0 16 -12 38 -34 60 l-34 34 -118 -1 c-66 0 -129 -4 -141 -9z"/>
 </g>
<g id="layer102" fill="#00b36a" stroke="none">
 <path d="M2455 4236 c-216 -52 -355 -261 -316 -473 21 -117 99 -230 195 -287 112 -66 282 -75 393 -20 168 81 268 279 228 451 -41 177 -166 301 -335 333 -66 12 -101 12 -165 -4z"/>
 </g>

</svg>